# xmcd CD database file
#
# Track frame offsets:
#	150
#	14540
#	29971
#	45740
#	66379
#	81673
#	93196
#	110446
#	129389
#	149112
#	161190
#	179453
#
# Disc length: 3003 seconds
#
# Revision: 0
# Processed by: cddbd v1.4PL0 Copyright (c) Steve Scherf et al.
# Submitted via: CDex 1.50beta10
#
DISCID=b90bb90c
DTITLE=Magic Car - Yellow Main Sequence
DYEAR=2001
DGENRE=Country
TTITLE0=Too lonesome cowboy
TTITLE1=Three cornered hat
TTITLE2=Piano wire
TTITLE3=Downtown
TTITLE4=Night so blue
TTITLE5=Honey babe
TTITLE6=Bob Mitchum
TTITLE7=How about you
TTITLE8=4 in the morning
TTITLE9=Phobic Phoebe
TTITLE10=Shiny cattle
TTITLE11=Yellow main sequence
EXTD=YEAR: 2001
EXTT0=
EXTT1=
EXTT2=
EXTT3=
EXTT4=
EXTT5=
EXTT6=
EXTT7=
EXTT8=
EXTT9=
EXTT10=
EXTT11=
PLAYORDER=
